<svg width="216" height="208" viewBox="0 0 216 208" fill="none" xmlns="http://www.w3.org/2000/svg">
<g clip-path="url(#clip0_146_7161)">
<path d="M2.92432 192.708C54.495 200.748 156.368 167.12 173.609 64.8581" stroke="black" stroke-width="2"/>
<path d="M169.546 65.6988L174.22 58.9684L177.176 66.9755L169.546 65.6988Z" fill="#B1E58E" stroke="black"/>
<path d="M180.483 39.7674C179.847 39.9195 179.183 40 178.5 40C173.806 40 170 36.1944 170 31.5C170 31.0165 170.04 30.5425 170.118 30.0811C170.082 30.1159 170.044 30.1479 170.005 30.1778C169.724 30.3908 169.375 30.4699 168.676 30.6281L168.04 30.772C165.58 31.3286 164.35 31.6068 164.057 32.5477C163.765 33.4887 164.603 34.4691 166.28 36.4299L166.714 36.9372C167.19 37.4944 167.429 37.773 167.536 38.1177C167.643 38.4624 167.607 38.8341 167.535 39.5776L167.469 40.2544C167.216 42.8706 167.089 44.1787 167.855 44.7602C168.621 45.3417 169.773 44.8116 172.076 43.7512L172.672 43.4768C173.326 43.1755 173.653 43.0249 174 43.0249C174.347 43.0249 174.674 43.1755 175.329 43.4768L175.924 43.7512C178.227 44.8116 179.379 45.3417 180.145 44.7602C180.911 44.1787 180.784 42.8706 180.531 40.2544L180.483 39.7674Z" fill="black"/>
<path d="M170.588 30.3102C170.53 30.6982 170.5 31.0954 170.5 31.5C170.5 35.9183 174.082 39.5 178.5 39.5C178.993 39.5 179.475 39.4555 179.943 39.3704C179.888 38.8007 179.861 38.3744 179.987 37.9692C180.125 37.5244 180.428 37.1708 180.846 36.6819C180.866 36.659 180.886 36.6358 180.906 36.6122L180.906 36.6122L181.34 36.1049C181.34 36.1049 181.34 36.1049 181.34 36.1049C182.189 35.112 182.788 34.4094 183.147 33.84C183.502 33.276 183.546 32.9569 183.465 32.6962L183.943 32.5477L183.465 32.6962C183.386 32.4409 183.179 32.2165 182.581 31.9809C181.974 31.7417 181.097 31.5418 179.85 31.2597L179.85 31.2597L179.214 31.1157C179.214 31.1157 179.214 31.1157 179.214 31.1157C179.183 31.1087 179.152 31.1018 179.122 31.095C178.513 30.9576 178.061 30.8558 177.693 30.5761C177.327 30.2984 177.098 29.8873 176.785 29.324C176.769 29.2963 176.754 29.2682 176.738 29.2397L170.588 30.3102ZM170.588 30.3102C170.808 30.0556 170.99 29.7293 171.215 29.3244C171.231 29.2965 171.246 29.2683 171.262 29.2397C171.262 29.2397 171.262 29.2397 171.262 29.2397L171.59 28.6518C172.231 27.5011 172.686 26.6882 173.093 26.1561C173.501 25.6243 173.766 25.5 174 25.5C174.234 25.5 174.499 25.6243 174.907 26.1561C175.314 26.6882 175.769 27.5011 176.41 28.6518C176.41 28.6518 176.41 28.6518 176.41 28.6518L176.738 29.2397L170.588 30.3102Z" fill="#B1E58E" stroke="black"/>
</g>
<path d="M0 208H-2V210H0V208ZM216 206H0V210H216V206ZM2 208V0H-2V208H2Z" fill="black" mask="url(#path-1-inside-1_146_7161)"/>
<defs>
<clipPath id="clip0_146_7161">
<path d="M0 0H216V208H0V0Z" fill="white"/>
</clipPath>
</defs>
</svg>
