<svg width="176" height="234" viewBox="0 0 176 234" fill="none" xmlns="http://www.w3.org/2000/svg">
<rect x="9.49365" y="0.5" width="17.0043" height="17" rx="8.5" fill="#F0F0F0"/>
<path d="M20.6387 6.14286C20.757 6.14286 20.853 6.04691 20.853 5.92857V5.21429C20.853 5.09595 20.757 5 20.6387 5H15.353C15.2346 5 15.1387 5.09595 15.1387 5.21429V6.01336C15.1387 6.1317 15.2346 6.22764 15.353 6.22764H16.8758C17.3635 6.22764 17.7376 6.40546 17.9646 6.71429H15.353C15.2346 6.71429 15.1387 6.81023 15.1387 6.92857V7.64286C15.1387 7.7612 15.2346 7.85714 15.353 7.85714H18.1879C18.0769 8.50154 17.5993 8.90414 16.853 8.90414H15.353C15.2346 8.90414 15.1387 9.00009 15.1387 9.11843V10.0651C15.1387 10.1249 15.1637 10.182 15.2076 10.2225L18.155 12.9432C18.1946 12.9797 18.2464 13 18.3003 13H19.7746C19.9697 13 20.0633 12.7606 19.92 12.6283L17.2257 10.1412C18.5917 10.0994 19.5675 9.1877 19.6956 7.85714H20.6387C20.757 7.85714 20.853 7.7612 20.853 7.64286V6.92857C20.853 6.81023 20.757 6.71429 20.6387 6.71429H19.5906C19.5284 6.5082 19.4428 6.31704 19.3361 6.14286H20.6387Z" fill="black"/>
<rect x="9.49365" y="0.5" width="17.0043" height="17" rx="8.5" stroke="black"/>
<rect x="31.498" y="0.5" width="17.0043" height="17" rx="8.5" fill="#F0F0F0"/>
<path d="M42.6431 6.14286C42.7614 6.14286 42.8574 6.04691 42.8574 5.92857V5.21429C42.8574 5.09595 42.7614 5 42.6431 5H37.3574C37.239 5 37.1431 5.09595 37.1431 5.21429V6.01336C37.1431 6.1317 37.239 6.22764 37.3574 6.22764H38.8802C39.3679 6.22764 39.742 6.40546 39.969 6.71429H37.3574C37.239 6.71429 37.1431 6.81023 37.1431 6.92857V7.64286C37.1431 7.7612 37.239 7.85714 37.3574 7.85714H40.1923C40.0813 8.50154 39.6037 8.90414 38.8574 8.90414H37.3574C37.239 8.90414 37.1431 9.00009 37.1431 9.11843V10.0651C37.1431 10.1249 37.1681 10.182 37.212 10.2225L40.1594 12.9432C40.199 12.9797 40.2508 13 40.3047 13H41.779C41.9741 13 42.0677 12.7606 41.9244 12.6283L39.23 10.1412C40.5961 10.0994 41.5719 9.1877 41.7 7.85714H42.6431C42.7614 7.85714 42.8574 7.7612 42.8574 7.64286V6.92857C42.8574 6.81023 42.7614 6.71429 42.6431 6.71429H41.595C41.5328 6.5082 41.4472 6.31704 41.3405 6.14286H42.6431Z" fill="black"/>
<rect x="31.498" y="0.5" width="17.0043" height="17" rx="8.5" stroke="black"/>
<rect x="53.5024" y="0.5" width="17.0043" height="17" rx="8.5" fill="#F0F0F0"/>
<path d="M64.6475 6.14286C64.7658 6.14286 64.8617 6.04691 64.8617 5.92857V5.21429C64.8617 5.09595 64.7658 5 64.6475 5H59.3617C59.2434 5 59.1475 5.09595 59.1475 5.21429V6.01336C59.1475 6.1317 59.2434 6.22764 59.3617 6.22764H60.8846C61.3722 6.22764 61.7464 6.40546 61.9734 6.71429H59.3617C59.2434 6.71429 59.1475 6.81023 59.1475 6.92857V7.64286C59.1475 7.7612 59.2434 7.85714 59.3617 7.85714H62.1967C62.0857 8.50154 61.6081 8.90414 60.8617 8.90414H59.3617C59.2434 8.90414 59.1475 9.00009 59.1475 9.11843V10.0651C59.1475 10.1249 59.1725 10.182 59.2164 10.2225L62.1638 12.9432C62.2033 12.9797 62.2552 13 62.3091 13H63.7834C63.9785 13 64.0721 12.7606 63.9288 12.6283L61.2344 10.1412C62.6005 10.0994 63.5763 9.1877 63.7044 7.85714H64.6475C64.7658 7.85714 64.8617 7.7612 64.8617 7.64286V6.92857C64.8617 6.81023 64.7658 6.71429 64.6475 6.71429H63.5994C63.5372 6.5082 63.4516 6.31704 63.3449 6.14286H64.6475Z" fill="black"/>
<rect x="53.5024" y="0.5" width="17.0043" height="17" rx="8.5" stroke="black"/>
<rect x="0.5" y="26.5" width="79" height="199" rx="1.5" fill="#F0F0F0" stroke="black"/>
<rect x="127.498" y="180.5" width="17.0043" height="17" rx="8.5" fill="#BFCDFF"/>
<path d="M138.643 186.143C138.761 186.143 138.857 186.047 138.857 185.929V185.214C138.857 185.096 138.761 185 138.643 185H133.357C133.239 185 133.143 185.096 133.143 185.214V186.013C133.143 186.132 133.239 186.228 133.357 186.228H134.88C135.368 186.228 135.742 186.405 135.969 186.714H133.357C133.239 186.714 133.143 186.81 133.143 186.929V187.643C133.143 187.761 133.239 187.857 133.357 187.857H136.192C136.081 188.502 135.604 188.904 134.857 188.904H133.357C133.239 188.904 133.143 189 133.143 189.118V190.065C133.143 190.125 133.168 190.182 133.212 190.223L136.159 192.943C136.199 192.98 136.251 193 136.305 193H137.779C137.974 193 138.068 192.761 137.924 192.628L135.23 190.141C136.596 190.099 137.572 189.188 137.7 187.857H138.643C138.761 187.857 138.857 187.761 138.857 187.643V186.929C138.857 186.81 138.761 186.714 138.643 186.714H137.595C137.533 186.508 137.447 186.317 137.341 186.143H138.643Z" fill="black"/>
<rect x="127.498" y="180.5" width="17.0043" height="17" rx="8.5" stroke="black"/>
<rect x="96.5" y="206.5" width="79" height="19" rx="1.5" fill="#BFCDFF" stroke="black"/>
<path d="M176 232H0V236H176V232Z" fill="black" mask="url(#path-1-inside-1_146_7127)"/>
</svg>
